<?xml version="1.0" encoding="utf-8"?>
<!-- Generator: Adobe Illustrator 16.0.0, SVG Export Plug-In . SVG Version: 6.00 Build 0)  -->
<!DOCTYPE svg PUBLIC "-//W3C//DTD SVG 1.1//EN" "http://www.w3.org/Graphics/SVG/1.1/DTD/svg11.dtd">
<svg version="1.1" id="Layer_1" xmlns="http://www.w3.org/2000/svg" xmlns:xlink="http://www.w3.org/1999/xlink" x="0px" y="0px"
	 width="170px" height="70px" viewBox="0 0 170 70" enable-background="new 0 0 170 70" xml:space="preserve">
<g>
	<path fill="#CC9933" d="M35.94,32.569c-3.565,5.714-9.676,10.237-12.358,11.51l0,0c0.147-0.052,7.765-1.853,13.662-6.753l0,0
		c0.261,3.579-0.983,7.247-3.731,9.975l0,0c-2.497,2.479-5.765,3.709-9.026,3.698l0,0c-2.487-0.008-4.973-0.741-7.112-2.193l0,0
		c-0.625-0.429-1.219-0.912-1.778-1.464l0,0c-1.074,2.193-1.959,4.434-2.48,6.709l0,0c0.333,0.238,0.671,0.471,1.016,0.688l0,0
		c3.062,1.942,6.616,2.988,10.33,3.001l0,0c5.206,0.02,10.106-1.99,13.8-5.656l0,0c6.173-6.127,7.375-15.399,3.59-22.752l0,0
		c-0.829-1.616-1.898-3.138-3.208-4.512C38.504,27.512,37.451,30.146,35.94,32.569L35.94,32.569L35.94,32.569z"/>
	<path fill="#CC9933" d="M10.805,24.425c-3.693,3.669-5.738,8.555-5.757,13.758l0,0c-0.011,3.231,0.759,6.343,2.224,9.124l0,0
		c0.82,1.563,1.863,3.022,3.109,4.34l0,0c0.111-2.722,0.816-5.561,2.352-8.574l0,0c0.908-1.782,2.104-3.625,3.638-5.54l0,0
		c0,0-1.969,1.001-4.318,3.293l0,0c-0.181-0.863-0.267-1.741-0.264-2.618l0,0c0.011-3.263,1.27-6.519,3.766-9l0,0l9.045-8.979
		c6.438,6.482-3.647,16.185-9.001,27.109l0,0c-1.074,2.193-1.959,4.435-2.48,6.709l0,0c-0.505,2.198-0.67,4.43-0.34,6.674l0,0
		c0.059-2.016,0.555-4.014,1.356-5.985l0,0c0.812-2.001,1.938-3.979,3.243-5.934l0,0c4.874-7.313,12.215-14.295,14.798-20.944l0,0
		c1.613-4.145,1.376-8.164-2.464-12.05l0,0c-0.01-0.009-0.021-0.021-0.029-0.029l0,0l-5.046-5.082L10.805,24.425L10.805,24.425z"/>
	<path fill="#CC9933" d="M47.868,36.794c1.216,0.724,3.651,1.384,5.985,1.384c5.723,0,8.418-3.093,8.418-6.643
		c0-3.191-1.875-5.13-5.722-6.577c-2.96-1.151-4.242-1.941-4.242-3.651c0-1.282,1.119-2.665,3.683-2.665
		c2.071,0,3.617,0.625,4.406,1.052l0.987-3.256c-1.152-0.593-2.927-1.118-5.327-1.118c-4.802,0-7.827,2.763-7.827,6.381
		c0,3.19,2.335,5.13,5.984,6.444c2.829,1.02,3.947,2.007,3.947,3.685c0,1.808-1.447,3.026-4.045,3.026
		c-2.071,0-4.044-0.659-5.359-1.415L47.868,36.794L47.868,36.794z M63.991,44.358h4.045v-8.287h0.066
		c0.822,1.281,2.499,2.138,4.505,2.138c3.65,0,7.3-2.796,7.3-8.584c0-4.999-3.058-8.156-6.741-8.156
		c-2.434,0-4.309,1.021-5.493,2.829h-0.067l-0.196-2.467h-3.552c0.066,1.513,0.132,3.223,0.132,5.328V44.358L63.991,44.358z
		 M68.036,28.672c0-0.329,0.066-0.691,0.164-1.019c0.394-1.776,1.941-2.993,3.618-2.993c2.598,0,3.98,2.303,3.98,5.131
		c0,3.157-1.513,5.294-4.079,5.294c-1.708,0-3.157-1.184-3.551-2.829c-0.098-0.362-0.132-0.723-0.132-1.117V28.672L68.036,28.672z
		 M94.124,37.846c-0.165-0.984-0.229-2.4-0.229-3.847v-5.788c0-3.486-1.479-6.743-6.612-6.743c-2.53,0-4.604,0.691-5.787,1.415
		l0.789,2.631c1.085-0.691,2.73-1.185,4.309-1.185c2.828,0,3.255,1.744,3.255,2.796v0.263c-5.919-0.033-9.504,2.007-9.504,6.052
		c0,2.433,1.809,4.769,5.031,4.769c2.071,0,3.749-0.89,4.736-2.138h0.098l0.265,1.774H94.124L94.124,37.846z M89.947,32.224
		c0,0.263-0.031,0.593-0.131,0.888c-0.361,1.151-1.546,2.203-3.157,2.203c-1.283,0-2.302-0.721-2.302-2.301
		c0-2.434,2.729-3.059,5.59-2.993V32.224L89.947,32.224z M107.617,34.362c-0.79,0.329-1.775,0.625-3.19,0.625
		c-2.764,0-4.901-1.875-4.901-5.164c-0.032-2.928,1.811-5.196,4.901-5.196c1.445,0,2.4,0.329,3.059,0.625l0.722-3.025
		c-0.92-0.428-2.434-0.757-3.913-0.757c-5.624,0-8.913,3.749-8.913,8.551c0,4.967,3.256,8.156,8.255,8.156
		c2.006,0,3.683-0.429,4.538-0.822L107.617,34.362L107.617,34.362z M122.688,30.974c0.067-0.361,0.133-0.954,0.133-1.71
		c0-3.52-1.71-7.794-6.907-7.794c-5.13,0-7.827,4.178-7.827,8.616c0,4.9,3.059,8.091,8.255,8.091c2.302,0,4.208-0.429,5.591-0.987
		l-0.594-2.796c-1.216,0.462-2.565,0.724-4.439,0.724c-2.564,0-4.832-1.25-4.932-4.144H122.688L122.688,30.974z M111.967,28.146
		c0.166-1.644,1.218-3.914,3.717-3.914c2.697,0,3.355,2.433,3.322,3.914H111.967L111.967,28.146z M124.311,37.846h4.076V28.44
		c0-0.46,0.033-0.953,0.165-1.315c0.428-1.217,1.546-2.368,3.157-2.368c2.203,0,3.058,1.744,3.058,4.044v9.043h4.046v-9.504
		c0-5.065-2.895-6.874-5.689-6.874c-2.666,0-4.407,1.513-5.099,2.763h-0.099l-0.196-2.4h-3.554c0.1,1.381,0.133,2.926,0.133,4.77
		v11.246H124.311z M154.937,30.974c0.064-0.361,0.13-0.954,0.13-1.71c0-3.52-1.709-7.794-6.907-7.794
		c-5.129,0-7.825,4.178-7.825,8.616c0,4.9,3.058,8.091,8.256,8.091c2.299,0,4.207-0.429,5.59-0.987l-0.593-2.796
		c-1.219,0.462-2.565,0.724-4.438,0.724c-2.568,0-4.836-1.25-4.935-4.144H154.937L154.937,30.974z M144.214,28.146
		c0.166-1.644,1.218-3.914,3.716-3.914c2.698,0,3.355,2.433,3.322,3.914H144.214L144.214,28.146z M157.247,18.215v3.617h-2.302
		v3.026h2.302v7.531c0,2.105,0.394,3.553,1.25,4.473c0.757,0.823,2.004,1.317,3.486,1.317c1.281,0,2.333-0.167,2.925-0.396
		l-0.064-3.091c-0.363,0.098-0.89,0.197-1.579,0.197c-1.547,0-2.072-1.02-2.072-2.959v-7.071h3.848v-3.026h-3.848V17.26
		L157.247,18.215L157.247,18.215z"/>
	<path fill="#808080" d="M73.271,52.768V40.761h8.671v1.409h-7.078v3.689h6.625v1.407h-6.625v4.094h7.363v1.409h-8.957V52.768z
		 M85.131,52.768v-8.702h1.323v1.233c0.638-0.946,1.561-1.418,2.765-1.418c0.526,0,1.007,0.094,1.445,0.28
		c0.438,0.188,0.769,0.438,0.986,0.743c0.217,0.305,0.371,0.667,0.458,1.086c0.052,0.272,0.081,0.75,0.081,1.435v5.343h-1.477
		v-5.288c0-0.6-0.055-1.05-0.171-1.347c-0.114-0.297-0.316-0.533-0.607-0.714c-0.291-0.175-0.634-0.265-1.025-0.265
		c-0.628,0-1.168,0.198-1.622,0.6c-0.454,0.398-0.682,1.154-0.682,2.268v4.748h-1.474V52.768z M98.553,51.451l0.2,1.304
		c-0.41,0.086-0.783,0.129-1.107,0.129c-0.535,0-0.948-0.082-1.243-0.253c-0.295-0.17-0.503-0.393-0.622-0.668
		c-0.119-0.277-0.178-0.858-0.178-1.745v-5.014h-1.09v-1.14h1.09V41.91l1.476-0.886v3.04h1.475v1.14h-1.475v5.097
		c0,0.421,0.024,0.693,0.077,0.813c0.05,0.121,0.134,0.217,0.251,0.289c0.12,0.07,0.286,0.106,0.505,0.106
		C98.072,51.51,98.287,51.492,98.553,51.451L98.553,51.451z M106.836,49.951l1.527,0.201c-0.236,0.887-0.683,1.576-1.331,2.065
		c-0.647,0.49-1.474,0.736-2.484,0.736c-1.27,0-2.274-0.393-3.019-1.174s-1.115-1.881-1.115-3.291c0-1.459,0.375-2.594,1.128-3.397
		c0.751-0.809,1.727-1.211,2.925-1.211c1.16,0,2.108,0.396,2.845,1.184c0.734,0.792,1.104,1.903,1.104,3.338
		c0,0.087-0.002,0.218-0.009,0.392h-6.481c0.056,0.953,0.324,1.685,0.811,2.19c0.484,0.506,1.089,0.761,1.813,0.761
		c0.541,0,1.001-0.143,1.382-0.429C106.312,51.032,106.613,50.578,106.836,49.951L106.836,49.951z M102.008,47.586h4.847
		c-0.063-0.732-0.251-1.28-0.554-1.646c-0.468-0.567-1.079-0.854-1.824-0.854c-0.676,0-1.243,0.228-1.705,0.68
		C102.314,46.218,102.059,46.825,102.008,47.586L102.008,47.586z M111.104,52.768v-8.702h1.323v1.332
		c0.339-0.617,0.651-1.024,0.938-1.221c0.291-0.199,0.604-0.297,0.948-0.297c0.498,0,1.004,0.155,1.519,0.464l-0.527,1.363
		c-0.358-0.202-0.715-0.303-1.074-0.303c-0.32,0-0.607,0.098-0.862,0.292c-0.255,0.193-0.438,0.46-0.547,0.803
		c-0.164,0.522-0.245,1.097-0.245,1.721v4.546h-1.472V52.768z M117.595,56.104V44.065h1.343v1.141
		c0.315-0.441,0.673-0.774,1.074-0.993c0.396-0.221,0.879-0.332,1.447-0.332c0.744,0,1.397,0.189,1.965,0.572
		c0.567,0.381,0.995,0.92,1.286,1.613c0.288,0.695,0.432,1.456,0.432,2.284c0,0.887-0.159,1.685-0.477,2.398
		c-0.318,0.71-0.784,1.254-1.393,1.635c-0.605,0.377-1.245,0.567-1.917,0.567c-0.492,0-0.934-0.104-1.321-0.311
		c-0.392-0.207-0.71-0.466-0.962-0.783v4.245h-1.478V56.104z M118.938,48.468c0,1.117,0.227,1.942,0.676,2.475
		c0.453,0.534,1,0.803,1.645,0.803c0.654,0,1.213-0.276,1.675-0.829c0.469-0.555,0.699-1.411,0.699-2.571
		c0-1.105-0.224-1.934-0.681-2.483c-0.458-0.551-0.998-0.826-1.63-0.826c-0.626,0-1.179,0.295-1.661,0.881
		C119.179,46.501,118.938,47.353,118.938,48.468L118.938,48.468z M127.798,52.768v-8.702h1.326v1.332
		c0.336-0.617,0.65-1.024,0.937-1.221c0.288-0.199,0.604-0.297,0.948-0.297c0.498,0,1.002,0.155,1.519,0.464L132,45.707
		c-0.358-0.202-0.714-0.303-1.073-0.303c-0.321,0-0.609,0.098-0.863,0.292c-0.255,0.193-0.437,0.46-0.546,0.803
		c-0.164,0.522-0.247,1.097-0.247,1.721v4.546h-1.473V52.768z M134.293,42.438v-1.678h1.475v1.678H134.293L134.293,42.438z
		 M134.293,52.768v-8.702h1.475v8.702H134.293L134.293,52.768z M138.322,50.169l1.459-0.235c0.081,0.583,0.312,1.034,0.687,1.345
		c0.374,0.311,0.899,0.467,1.57,0.467c0.678,0,1.181-0.137,1.511-0.414c0.327-0.273,0.492-0.598,0.492-0.97
		c0-0.332-0.147-0.595-0.441-0.786c-0.206-0.132-0.709-0.297-1.51-0.5c-1.079-0.27-1.824-0.507-2.243-0.705
		c-0.416-0.2-0.732-0.475-0.947-0.826c-0.215-0.351-0.324-0.738-0.324-1.164c0-0.388,0.09-0.746,0.266-1.077
		c0.177-0.329,0.418-0.603,0.725-0.819c0.227-0.169,0.542-0.313,0.937-0.428c0.396-0.119,0.819-0.176,1.271-0.176
		c0.683,0,1.28,0.098,1.795,0.297c0.517,0.196,0.896,0.462,1.143,0.797c0.243,0.34,0.415,0.789,0.505,1.354l-1.441,0.201
		c-0.065-0.453-0.255-0.807-0.567-1.062c-0.313-0.255-0.755-0.381-1.327-0.381c-0.674,0-1.157,0.113-1.445,0.337
		c-0.287,0.223-0.433,0.486-0.433,0.783c0,0.191,0.059,0.365,0.178,0.519c0.121,0.157,0.309,0.288,0.565,0.392
		c0.146,0.054,0.579,0.182,1.3,0.376c1.039,0.277,1.765,0.506,2.18,0.683c0.414,0.176,0.739,0.437,0.973,0.772
		c0.238,0.338,0.356,0.757,0.356,1.259c0,0.491-0.143,0.95-0.431,1.385c-0.288,0.433-0.701,0.769-1.24,1.007
		c-0.543,0.236-1.156,0.354-1.838,0.354c-1.129,0-1.992-0.233-2.586-0.701C138.864,51.78,138.486,51.089,138.322,50.169
		L138.322,50.169z M154.123,49.951l1.524,0.201c-0.238,0.887-0.683,1.576-1.328,2.065c-0.649,0.49-1.477,0.736-2.485,0.736
		c-1.27,0-2.276-0.393-3.02-1.174s-1.114-1.881-1.114-3.291c0-1.459,0.373-2.594,1.126-3.397c0.752-0.809,1.728-1.211,2.928-1.211
		c1.16,0,2.105,0.396,2.842,1.184c0.735,0.79,1.104,1.903,1.104,3.338c0,0.087-0.002,0.218-0.009,0.392h-6.481
		c0.056,0.953,0.324,1.685,0.811,2.19c0.484,0.506,1.09,0.761,1.814,0.761c0.539,0,1.001-0.143,1.379-0.429
		C153.599,51.032,153.898,50.578,154.123,49.951L154.123,49.951z M149.294,47.586h4.845c-0.064-0.732-0.251-1.28-0.557-1.646
		c-0.464-0.567-1.075-0.854-1.819-0.854c-0.678,0-1.244,0.228-1.706,0.68C149.596,46.218,149.344,46.825,149.294,47.586
		L149.294,47.586z M157.816,50.169l1.461-0.235c0.081,0.583,0.312,1.034,0.686,1.345c0.373,0.311,0.898,0.467,1.568,0.467
		c0.681,0,1.184-0.137,1.515-0.414c0.327-0.273,0.491-0.598,0.491-0.97c0-0.332-0.146-0.595-0.441-0.786
		c-0.208-0.132-0.711-0.297-1.509-0.5c-1.081-0.27-1.825-0.507-2.246-0.705c-0.415-0.2-0.731-0.475-0.945-0.826
		c-0.217-0.351-0.324-0.738-0.324-1.164c0-0.388,0.089-0.746,0.264-1.077c0.18-0.329,0.419-0.603,0.725-0.819
		c0.228-0.169,0.543-0.313,0.938-0.428c0.396-0.119,0.818-0.176,1.272-0.176c0.682,0,1.279,0.098,1.794,0.297
		c0.517,0.196,0.897,0.462,1.143,0.797c0.243,0.34,0.414,0.789,0.506,1.354l-1.442,0.201c-0.064-0.453-0.255-0.807-0.568-1.062
		c-0.312-0.255-0.754-0.381-1.326-0.381c-0.674,0-1.157,0.113-1.446,0.337c-0.288,0.223-0.432,0.486-0.432,0.783
		c0,0.191,0.06,0.365,0.18,0.519c0.119,0.157,0.308,0.288,0.563,0.392c0.149,0.054,0.578,0.182,1.3,0.376
		c1.04,0.277,1.768,0.506,2.181,0.683c0.413,0.176,0.738,0.437,0.973,0.772c0.236,0.338,0.355,0.757,0.355,1.259
		c0,0.491-0.143,0.95-0.43,1.385c-0.288,0.433-0.703,0.769-1.241,1.007c-0.543,0.236-1.155,0.354-1.836,0.354
		c-1.13,0-1.995-0.233-2.585-0.701C158.359,51.78,157.983,51.089,157.816,50.169L157.816,50.169z"/>
</g>
</svg>
